<svg xmlns="http://www.w3.org/2000/svg" fill="none" viewBox="0 0 24 24"
     id="Draft-Fill--Streamline-Rounded-Fill-Material" height="24" width="24">
    <desc>Draft Fill Streamline Icon: https://streamlinehq.com</desc>
    <path fill="#000000"
          d="M5.5 22c-0.4 0 -0.75 -0.15 -1.05 -0.45 -0.3 -0.3 -0.45 -0.65 -0.45 -1.05V3.5c0 -0.4 0.15 -0.75 0.45 -1.05 0.3 -0.3 0.65 -0.45 1.05 -0.45h8.4c0.2 0 0.39585 0.041665 0.5875 0.125 0.19165 0.083335 0.35415 0.191665 0.4875 0.325l4.575 4.575c0.13335 0.13335 0.24165 0.29585 0.325 0.4875 0.08335 0.19165 0.125 0.3875 0.125 0.5875V20.5c0 0.4 -0.15 0.75 -0.45 1.05 -0.3 0.3 -0.65 0.45 -1.05 0.45H5.5Zm8.275 -14.6c0 0.21665 0.07085 0.39585 0.2125 0.5375s0.32085 0.2125 0.5375 0.2125H18.5L13.775 3.5v3.9Z"
          stroke-width="0.5"/>
</svg>