<svg xmlns="http://www.w3.org/2000/svg" fill="none" viewBox="0 0 24 24"
     id="Folder-Fill--Streamline-Rounded-Fill-Material" height="24" width="24">
    <desc>Folder Fill Streamline Icon: https://streamlinehq.com</desc>
    <path fill="#000000"
          d="M3.5 20c-0.4 0 -0.75 -0.15415 -1.05 -0.4625C2.15 19.22915 2 18.88335 2 18.5V5.5c0 -0.38335 0.15 -0.729165 0.45 -1.0375C2.75 4.154165 3.1 4 3.5 4h6.4c0.2 0 0.39585 0.041665 0.5875 0.125 0.19165 0.083335 0.35415 0.191665 0.4875 0.325l1.05 1.05H20.5c0.38335 0 0.72915 0.15415 1.0375 0.4625 0.30835 0.30835 0.4625 0.65415 0.4625 1.0375v11.5c0 0.38335 -0.15415 0.72915 -0.4625 1.0375 -0.30835 0.30835 -0.65415 0.4625 -1.0375 0.4625H3.5Z"
          stroke-width="0.5"/>
</svg>